<?xml version="1.0" encoding="UTF-8" standalone="no"?>
<svg
   class="thumb"
   height="1000"
   viewBox="0,0,600,600"
   width="1000"
   version="1.1"
   id="svg11"
   sodipodi:docname="Bighil_Logo.svg"
   inkscape:version="1.4.2 (f4327f4, 2025-05-13)"
   xmlns:inkscape="http://www.inkscape.org/namespaces/inkscape"
   xmlns:sodipodi="http://sodipodi.sourceforge.net/DTD/sodipodi-0.dtd"
   xmlns:xlink="http://www.w3.org/1999/xlink"
   xmlns="http://www.w3.org/2000/svg"
   xmlns:svg="http://www.w3.org/2000/svg">
  <sodipodi:namedview
     id="namedview11"
     pagecolor="#ffffff"
     bordercolor="#000000"
     borderopacity="0.25"
     inkscape:showpageshadow="2"
     inkscape:pageopacity="0.0"
     inkscape:pagecheckerboard="0"
     inkscape:deskcolor="#d1d1d1"
     inkscape:zoom="0.773"
     inkscape:cx="170.11643"
     inkscape:cy="444.37257"
     inkscape:window-width="1920"
     inkscape:window-height="991"
     inkscape:window-x="-9"
     inkscape:window-y="-9"
     inkscape:window-maximized="1"
     inkscape:current-layer="g9" />
  <defs
     id="defs1">
    <linearGradient
       id="linearGradient27"
       inkscape:swatch="gradient">
      <stop
         style="stop-color:#000000;stop-opacity:1;"
         offset="0"
         id="stop28" />
      <stop
         style="stop-color:#000000;stop-opacity:0;"
         offset="1"
         id="stop29" />
    </linearGradient>
    <linearGradient
       id="swatch21"
       inkscape:swatch="solid">
      <stop
         style="stop-color:#00b247;stop-opacity:1;"
         offset="0"
         id="stop21" />
    </linearGradient>
    <linearGradient
       id="swatch11"
       inkscape:swatch="solid">
      <stop
         style="stop-color:#000000;stop-opacity:1;"
         offset="0"
         id="stop11" />
    </linearGradient>
    <linearGradient
       inkscape:collect="always"
       xlink:href="#swatch21"
       id="linearGradient35"
       x1="-206.25517"
       y1="62.392948"
       x2="968.75519"
       y2="62.392948"
       gradientUnits="userSpaceOnUse" />
    <linearGradient
       inkscape:collect="always"
       xlink:href="#swatch21"
       id="linearGradient37"
       gradientUnits="userSpaceOnUse"
       x1="-206.25517"
       y1="62.392948"
       x2="968.75519"
       y2="62.392948" />
    <linearGradient
       inkscape:collect="always"
       xlink:href="#swatch21"
       id="linearGradient38"
       gradientUnits="userSpaceOnUse"
       x1="-206.25517"
       y1="62.392948"
       x2="968.75519"
       y2="62.392948" />
    <linearGradient
       inkscape:collect="always"
       xlink:href="#swatch21"
       id="linearGradient39"
       gradientUnits="userSpaceOnUse"
       x1="-206.25517"
       y1="62.392948"
       x2="968.75519"
       y2="62.392948" />
  </defs>
  <g
     transform="matrix(3.3748,0,0,3.3748,-126.5894,151.8436)"
     id="g11">
    <g
       transform="matrix(0.5,0,0,0.5,49.525,14.25)"
       id="g3">
      <svg
         height="181"
         style="overflow: visible;"
         width="305.90000000000003"
         version="1.1"
         id="svg2">
        <defs
           id="defs2">
          <linearGradient
             id="linearGradientSjxy616qmg"
             x1="0"
             x2="1"
             y1="0.5"
             y2="0.5">
            <stop
               offset="0%"
               stop-color="#20bd67"
               id="stop1" />
            <stop
               offset="100%"
               stop-color="#20bd67"
               id="stop2" />
          </linearGradient>
        </defs>
        <g
           transform="matrix(1,0,0,1,0,90.75)"
           id="g2">
          <path
             d="m 59.7,-36.4 c 4,1.266667 7.133333,3.383333 9.4,6.35 2.266667,2.966667 3.4,6.616667 3.4,10.95 v 0 c 0,6.133333 -2.383333,10.85 -7.15,14.15 C 60.583333,-1.65 53.633333,0 44.5,0 V 0 H 8.3 v -70 h 34.2 c 8.533333,0 15.083333,1.633333 19.65,4.9 4.566667,3.266667 6.85,7.7 6.85,13.3 v 0 c 0,3.4 -0.816667,6.433333 -2.45,9.1 -1.633333,2.666667 -3.916667,4.766667 -6.85,6.3 z M 40.5,-57.8 H 24.4 v 16.5 h 16.1 c 4,0 7.033333,-0.7 9.1,-2.1 2.066667,-1.4 3.1,-3.466667 3.1,-6.2 v 0 c 0,-2.733333 -1.033333,-4.783333 -3.1,-6.15 -2.066667,-1.366667 -5.1,-2.05 -9.1,-2.05 z m 2.8,45.6 c 4.266667,0 7.483333,-0.7 9.65,-2.1 2.166667,-1.4 3.25,-3.566667 3.25,-6.5 v 0 c 0,-5.8 -4.3,-8.7 -12.9,-8.7 v 0 H 24.4 v 17.3 z M 83.7,0 V -53.8 H 99.3 V 0 Z m 7.8,-61.3 c -2.866667,0 -5.2,-0.833333 -7,-2.5 -1.8,-1.666667 -2.7,-3.733333 -2.7,-6.2 v 0 c 0,-2.466667 0.9,-4.533333 2.7,-6.2 1.8,-1.666667 4.133333,-2.5 7,-2.5 v 0 c 2.866667,0 5.2,0.8 7,2.4 1.8,1.6 2.7,3.6 2.7,6 v 0 c 0,2.6 -0.9,4.75 -2.7,6.45 -1.8,1.7 -4.133333,2.55 -7,2.55 z m 63,7.5 h 14.8 V -9 c 0,9.86666667 -2.56667,17.2 -7.7,22 -5.13333,4.8 -12.63333,7.2 -22.5,7.2 v 0 c -5.2,0 -10.13333,-0.633333 -14.8,-1.9 -4.66667,-1.266667 -8.53333,-3.1 -11.6,-5.5 v 0 l 6.2,-11.2 c 2.26667,1.8666667 5.13333,3.35 8.6,4.45 3.46667,1.1 6.93333,1.65 10.4,1.65 v 0 c 5.4,0 9.38333,-1.2166667 11.95,-3.65 2.56667,-2.4333333 3.85,-6.1166667 3.85,-11.05 v 0 -2.3 c -4.06667,4.4666667 -9.73333,6.7 -17,6.7 v 0 c -4.93333,0 -9.45,-1.0833333 -13.55,-3.25 -4.1,-2.1666667 -7.35,-5.216667 -9.75,-9.15 -2.4,-3.933333 -3.6,-8.466667 -3.6,-13.6 v 0 c 0,-5.133333 1.2,-9.666667 3.6,-13.6 2.4,-3.933333 5.65,-6.983333 9.75,-9.15 4.1,-2.166667 8.61667,-3.25 13.55,-3.25 v 0 c 7.8,0 13.73333,2.566667 17.8,7.7 v 0 z m -14.7,38.4 c 4.13333,0 7.51667,-1.216667 10.15,-3.65 2.63333,-2.433333 3.95,-5.616667 3.95,-9.55 v 0 c 0,-3.933333 -1.31667,-7.116667 -3.95,-9.55 -2.63333,-2.433333 -6.01667,-3.65 -10.15,-3.65 v 0 c -4.13333,0 -7.53333,1.216667 -10.2,3.65 -2.66667,2.433333 -4,5.616667 -4,9.55 v 0 c 0,3.933333 1.33333,7.116667 4,9.55 2.66667,2.433333 6.06667,3.65 10.2,3.65 z m 76.7,-39.2 c 6.66667,0 12.05,2 16.15,6 4.1,4 6.15,9.933333 6.15,17.8 v 0 V 0 h -15.6 v -28.4 c 0,-4.266667 -0.93333,-7.45 -2.8,-9.55 -1.86667,-2.1 -4.56667,-3.15 -8.1,-3.15 v 0 c -3.93333,0 -7.06667,1.216667 -9.4,3.65 -2.33333,2.433333 -3.5,6.05 -3.5,10.85 v 0 V 0 h -15.6 v -74.2 h 15.6 v 26 c 2.06667,-2.066667 4.56667,-3.65 7.5,-4.75 2.93333,-1.1 6.13333,-1.65 9.6,-1.65 z M 252.9,0 v -53.8 h 15.6 V 0 Z m 7.8,-61.3 c -2.86667,0 -5.2,-0.833333 -7,-2.5 -1.8,-1.666667 -2.7,-3.733333 -2.7,-6.2 v 0 c 0,-2.466667 0.9,-4.533333 2.7,-6.2 1.8,-1.666667 4.13333,-2.5 7,-2.5 v 0 c 2.86667,0 5.2,0.8 7,2.4 1.8,1.6 2.7,3.6 2.7,6 v 0 c 0,2.6 -0.9,4.75 -2.7,6.45 -1.8,1.7 -4.13333,2.55 -7,2.55 z M 283,0 v -74.2 h 15.6 V 0 Z"
             data-dx="0"
             data-dy="0"
             data-font="Montserrat"
             data-font-scale="contain"
             data-font-size="100"
             data-font-src="/Content/clientfonts/montserrat-bold.woff"
             data-href=""
             data-letterspacing="0"
             data-offset="0.5"
             data-side="left"
             data-text-anchor="middle"
             data-textpath="Bighil"
             data-x="0"
             data-xmlspace="preserve"
             data-y="0"
             fill="#00a650"
             id="path2"
             sodipodi:nodetypes="cssssscccssssscsccssssssssssscccscccccssssssssssssccssssssccsssssccsssssssssssccssssssssssssssscccssssssccccccsscccccssssssssssssccccc"
             style="fill:#00a851;fill-opacity:1" />
        </g>
      </svg>
      <svg
         height="181"
         style="overflow: visible;"
         width="305.90000000000003"
         version="1.1"
         id="svg36">
        <defs
           id="defs36">
          <linearGradient
             id="linearGradient36"
             x1="0"
             x2="1"
             y1="0.5"
             y2="0.5">
            <stop
               offset="0%"
               stop-color="#20bd67"
               id="stop35" />
            <stop
               offset="100%"
               stop-color="#20bd67"
               id="stop36" />
          </linearGradient>
        </defs>
        <g
           transform="matrix(1,0,0,1,0,90.75)"
           id="g36">
          <path
             d="m 59.7,-36.4 c 4,1.266667 7.133333,3.383333 9.4,6.35 2.266667,2.966667 3.4,6.616667 3.4,10.95 v 0 c 0,6.133333 -2.383333,10.85 -7.15,14.15 C 60.583333,-1.65 53.633333,0 44.5,0 V 0 H 8.3 v -70 h 34.2 c 8.533333,0 15.083333,1.633333 19.65,4.9 4.566667,3.266667 6.85,7.7 6.85,13.3 v 0 c 0,3.4 -0.816667,6.433333 -2.45,9.1 -1.633333,2.666667 -3.916667,4.766667 -6.85,6.3 z M 40.5,-57.8 H 24.4 v 16.5 h 16.1 c 4,0 7.033333,-0.7 9.1,-2.1 2.066667,-1.4 3.1,-3.466667 3.1,-6.2 v 0 c 0,-2.733333 -1.033333,-4.783333 -3.1,-6.15 -2.066667,-1.366667 -5.1,-2.05 -9.1,-2.05 z m 2.8,45.6 c 4.266667,0 7.483333,-0.7 9.65,-2.1 2.166667,-1.4 3.25,-3.566667 3.25,-6.5 v 0 c 0,-5.8 -4.3,-8.7 -12.9,-8.7 v 0 H 24.4 v 17.3 z M 83.7,0 V -53.8 H 99.3 V 0 Z m 7.8,-61.3 c -2.866667,0 -5.2,-0.833333 -7,-2.5 -1.8,-1.666667 -2.7,-3.733333 -2.7,-6.2 v 0 c 0,-2.466667 0.9,-4.533333 2.7,-6.2 1.8,-1.666667 4.133333,-2.5 7,-2.5 v 0 c 2.866667,0 5.2,0.8 7,2.4 1.8,1.6 2.7,3.6 2.7,6 v 0 c 0,2.6 -0.9,4.75 -2.7,6.45 -1.8,1.7 -4.133333,2.55 -7,2.55 z m 63,7.5 h 14.8 V -9 c 0,9.86666667 -2.56667,17.2 -7.7,22 -5.13333,4.8 -12.63333,7.2 -22.5,7.2 v 0 c -5.2,0 -10.13333,-0.633333 -14.8,-1.9 -4.66667,-1.266667 -8.53333,-3.1 -11.6,-5.5 v 0 l 6.2,-11.2 c 2.26667,1.8666667 5.13333,3.35 8.6,4.45 3.46667,1.1 6.93333,1.65 10.4,1.65 v 0 c 5.4,0 9.38333,-1.2166667 11.95,-3.65 2.56667,-2.4333333 3.85,-6.1166667 3.85,-11.05 v 0 -2.3 c -4.06667,4.4666667 -9.73333,6.7 -17,6.7 v 0 c -4.93333,0 -9.45,-1.0833333 -13.55,-3.25 -4.1,-2.1666667 -7.35,-5.216667 -9.75,-9.15 -2.4,-3.933333 -3.6,-8.466667 -3.6,-13.6 v 0 c 0,-5.133333 1.2,-9.666667 3.6,-13.6 2.4,-3.933333 5.65,-6.983333 9.75,-9.15 4.1,-2.166667 8.61667,-3.25 13.55,-3.25 v 0 c 7.8,0 13.73333,2.566667 17.8,7.7 v 0 z m -14.7,38.4 c 4.13333,0 7.51667,-1.216667 10.15,-3.65 2.63333,-2.433333 3.95,-5.616667 3.95,-9.55 v 0 c 0,-3.933333 -1.31667,-7.116667 -3.95,-9.55 -2.63333,-2.433333 -6.01667,-3.65 -10.15,-3.65 v 0 c -4.13333,0 -7.53333,1.216667 -10.2,3.65 -2.66667,2.433333 -4,5.616667 -4,9.55 v 0 c 0,3.933333 1.33333,7.116667 4,9.55 2.66667,2.433333 6.06667,3.65 10.2,3.65 z m 76.7,-39.2 c 6.66667,0 12.05,2 16.15,6 4.1,4 6.15,9.933333 6.15,17.8 v 0 V 0 h -15.6 v -28.4 c 0,-4.266667 -0.93333,-7.45 -2.8,-9.55 -1.86667,-2.1 -4.56667,-3.15 -8.1,-3.15 v 0 c -3.93333,0 -7.06667,1.216667 -9.4,3.65 -2.33333,2.433333 -3.5,6.05 -3.5,10.85 v 0 V 0 h -15.6 v -74.2 h 15.6 v 26 c 2.06667,-2.066667 4.56667,-3.65 7.5,-4.75 2.93333,-1.1 6.13333,-1.65 9.6,-1.65 z M 252.9,0 v -53.8 h 15.6 V 0 Z m 7.8,-61.3 c -2.86667,0 -5.2,-0.833333 -7,-2.5 -1.8,-1.666667 -2.7,-3.733333 -2.7,-6.2 v 0 c 0,-2.466667 0.9,-4.533333 2.7,-6.2 1.8,-1.666667 4.13333,-2.5 7,-2.5 v 0 c 2.86667,0 5.2,0.8 7,2.4 1.8,1.6 2.7,3.6 2.7,6 v 0 c 0,2.6 -0.9,4.75 -2.7,6.45 -1.8,1.7 -4.13333,2.55 -7,2.55 z M 283,0 v -74.2 h 15.6 V 0 Z"
             data-dx="0"
             data-dy="0"
             data-font="Montserrat"
             data-font-scale="contain"
             data-font-size="100"
             data-font-src="/Content/clientfonts/montserrat-bold.woff"
             data-href=""
             data-letterspacing="0"
             data-offset="0.5"
             data-side="left"
             data-text-anchor="middle"
             data-textpath="Bighil"
             data-x="0"
             data-xmlspace="preserve"
             data-y="0"
             fill="#00a650"
             id="path36"
             sodipodi:nodetypes="cssssscccssssscsccssssssssssscccscccccssssssssssssccssssssccsssssccsssssssssssccssssssssssssssscccssssssccccccsscccccssssssssssssccccc"
             style="fill:#00a851;fill-opacity:1" />
        </g>
      </svg>
    </g>
    <g
       transform="matrix(0.5976,0,0,0.5976,98.997,0.1686)"
       id="g5">
      <svg
         height="58"
         viewBox="9,21,82.00000000000001,58"
         width="82.00000000000001"
         version="1.1"
         id="svg4">
        <defs
           id="defs4">
          <linearGradient
             id="linearGradientSjxy616qm8"
             x1="0.17"
             x2="0.83"
             y1="0.87"
             y2="0.13">
            <stop
               offset="0%"
               stop-color="#2de37f"
               id="stop3" />
            <stop
               offset="100%"
               stop-color="#20bd67"
               id="stop4" />
          </linearGradient>
        </defs>
        <g
           id="g4">
          <path
             d="m 50.6,26 c -0.42,0 -0.779,0.36 -0.779,0.78 v 7.44 c 0,1.08 1.619,1.08 1.619,0 V 26.78 C 51.439,26.36 51.08,26 50.6,26 Z m -11.34,1.08 c -0.72,0 -1.08,0.9 -0.54,1.38 L 44,33.68 c 0.72,0.78 1.86,-0.36 1.08,-1.08 L 39.86,27.32 C 39.68,27.2 39.5,27.08 39.26,27.08 Z m 22.74,0 c -0.24,0 -0.42,0.12 -0.601,0.24 l -5.22,5.28 c -0.78,0.72 0.36,1.86 1.14,1.08 L 62.54,28.46 C 63.08,27.92 62.72,27.08 62,27.08 Z M 33.02,36.14 C 22.52,36.14 14,44.66 14,55.1 14,65.54 22.52,74 33.02,74 42.741,74 50.84,66.62 51.8,57.02 l 31.5,-3.899 c 1.5,-0.181 2.7,-1.5 2.7,-3.06 v -2.64 -6.24 -2.22 c 0,-1.56 -1.261,-2.82 -2.82,-2.82 h -24.9 c -0.359,0 -0.72,0.3 -0.779,0.66 L 57.199,38 c -0.119,0.72 -1.02,1.38 -1.739,1.38 h -1.681 -6.3 -1.679 c -0.72,0 -1.56,-0.66 -1.74,-1.38 l -0.3,-1.2 C 43.7,36.44 43.401,36.14 42.98,36.14 Z m 0,1.62 h 9.36 l 0.12,0.6 c 0.36,1.5 1.74,2.64 3.3,2.64 h 1.68 6.3 1.681 c 1.56,0 2.939,-1.14 3.3,-2.64 l 0.18,-0.6 h 24.24 c 0.72,0 1.2,0.54 1.2,1.2 v 2.22 6.24 2.64 c 0,0.72 -0.601,1.379 -1.26,1.5 L 51.02,55.52 c -0.359,0.061 -0.659,0.36 -0.659,0.721 C 49.7,65.36 42.14,72.38 33.02,72.38 23.361,72.38 15.621,64.64 15.621,55.1 15.62,45.5 23.36,37.76 33.02,37.76 Z m 0,5.82 c -6.42,0 -11.579,5.16 -11.579,11.52 0,6.301 5.159,11.46 11.579,11.46 6.36,0 11.521,-5.159 11.521,-11.46 C 44.54,48.74 39.38,43.58 33.02,43.58 Z m 0,1.62 c 5.46,0 9.96,4.38 9.96,9.9 0,5.46 -4.5,9.9 -9.96,9.9 -5.52,0 -9.96,-4.44 -9.96,-9.9 0,-5.52 4.44,-9.9 9.96,-9.9 z"
             fill="#00a650"
             stroke="#00a650"
             id="path4"
             sodipodi:nodetypes="sssscssccccssccccssssccsccsssccsccsscsssccsccsccssccscccscsssscssssss"
             style="fill:#05ab55;fill-opacity:1" />
        </g>
      </svg>
    </g>
    <g
       transform="matrix(0.1371,0,0,0.1371,74.364898,71.219798)"
       id="g10">
      <svg
         height="192"
         style="overflow:visible;fill:#15b161;fill-opacity:1;stroke:url(#linearGradient39);stroke-width:382.382;stroke-dasharray:none;stroke-opacity:1"
         width="760.5"
         version="1.1"
         id="svg9">
        <defs
           id="defs9"
           style="stroke:url(#linearGradient35)">
          <linearGradient
             id="linearGradientSjxy616qmj"
             x1="0"
             x2="1"
             y1="0.5"
             y2="0.5"
             style="stroke:url(#linearGradient35)">
            <stop
               offset="49.29%"
               stop-color="#12c462"
               id="stop5"
               style="stroke:url(#linearGradient35)" />
            <stop
               offset="50%"
               stop-color="#000000"
               id="stop6"
               style="stroke:url(#linearGradient35)" />
            <stop
               offset="50.95%"
               stop-color="#23de77"
               id="stop7"
               style="stroke:url(#linearGradient35)" />
            <stop
               offset="99.53%"
               stop-color="#12c462"
               id="stop8"
               style="stroke:url(#linearGradient35)" />
            <stop
               offset="100%"
               stop-color="#000000"
               id="stop9"
               style="stroke:url(#linearGradient35)" />
          </linearGradient>
        </defs>
        <g
           transform="translate(0,99)"
           id="g9"
           style="fill:#15b161;fill-opacity:1;stroke:url(#linearGradient38);stroke-width:7.91035;stroke-dasharray:none;stroke-opacity:1">
          <path
             d="m -202.3,0 v -73.6 h 26.6 c 12.66667,0 19,6.3 19,18.9 v 0 c 0,4.4 -0.98333,8.033333 -2.95,10.9 -1.96667,2.866667 -4.45,4.733333 -7.45,5.6 v 0 c 3.33333,0.733333 6.33333,2.566667 9,5.5 2.66667,2.933333 4,7.033333 4,12.3 v 0 c 0,7.466667 -1.73333,12.7333333 -5.2,15.8 -3.46667,3.0666667 -8.6,4.6 -15.4,4.6 v 0 z m 8,-41 h 19.1 c 3.26667,0 5.9,-1.216667 7.9,-3.65 2,-2.433333 3,-5.683333 3,-9.75 v 0 c 0,-8 -3.8,-12 -11.4,-12 v 0 h -18.6 z m 0,33.9 h 19.4 c 4.26667,0 7.53333,-1.0666667 9.8,-3.2 2.26667,-2.133333 3.4,-5.933333 3.4,-11.4 v 0 c 0,-4 -1.25,-7.166667 -3.75,-9.5 -2.5,-2.333333 -5.65,-3.5 -9.45,-3.5 v 0 h -19.4 z m 94.2,7.2 c -4.73333,0 -8.25,-1.3 -10.55,-3.9 -2.3,-2.6 -3.45,-7.033333 -3.45,-13.3 v 0 -59.2 h 7.9 v 58.2 c 0,4.4 0.6,7.4 1.8,9 1.2,1.6 3.1,2.5666667 5.7,2.9 v 0 l 5.4,0.6 v 5.7 z m 64.6,0.5 c -5.466667,0 -9.866667,-0.76666667 -13.2,-2.3 -3.333333,-1.5333333 -5.816667,-4.2833333 -7.45,-8.25 -1.633333,-3.966667 -2.45,-9.583333 -2.45,-16.85 v 0 c 0,-7.333333 0.833333,-12.983333 2.5,-16.95 1.666667,-3.966667 4.133333,-6.683333 7.4,-8.15 3.266667,-1.466667 7.666667,-2.2 13.2,-2.2 v 0 c 5.466667,0 9.866667,0.75 13.2,2.25 3.333333,1.5 5.833333,4.233333 7.5,8.2 1.666667,3.966667 2.5,9.583333 2.5,16.85 v 0 c 0,7.266667 -0.833333,12.883333 -2.5,16.85 -1.666667,3.9666667 -4.15,6.7166667 -7.45,8.25 -3.3,1.53333333 -7.716667,2.3 -13.25,2.3 z m 0,-6.5 c 3.666667,0 6.55,-0.4833333 8.65,-1.45 2.1,-0.9666667 3.716667,-2.95 4.85,-5.95 1.133333,-3 1.7,-7.5 1.7,-13.5 v 0 c 0,-6 -0.55,-10.483333 -1.65,-13.45 -1.1,-2.966667 -2.716667,-4.933333 -4.85,-5.9 -2.133333,-0.966667 -5.033333,-1.45 -8.7,-1.45 v 0 c -3.733333,0 -6.65,0.483333 -8.75,1.45 -2.1,0.966667 -3.7,2.933333 -4.8,5.9 -1.1,2.966667 -1.65,7.45 -1.65,13.45 v 0 c 0,6 0.55,10.5 1.65,13.5 1.1,3 2.7,4.9833333 4.8,5.95 2.1,0.9666667 5.016667,1.45 8.75,1.45 z M 37.5,0 21.3,-53.4 h 8.1 L 41.906882,-10.66215 56,-53.4 h 6.9 L 76.696559,-9.4759138 89.1,-53.4 h 8.1 L 81.1,0 H 72.4 L 59.3,-42.8 46.1,0 Z m 169.9,0 c -5.26667,0 -9.13333,-1.35 -11.6,-4.05 -2.46667,-2.7 -3.63333,-7.116667 -3.5,-13.25 v 0 l 0.3,-29.6 h -8.5 V -52 l 8.6,-1.4 1.3,-14.9 h 6.1 v 14.9 h 15.4 v 6.5 h -15.4 v 29.6 c 0,4.066667 0.76667,6.85 2.3,8.35 1.53333,1.5 3.46667,2.35 5.8,2.55 v 0 l 6.5,0.6 V 0 Z m 47,0 v -76.3 h 7.9 v 28.8 c 2.73333,-1.933333 5.81667,-3.55 9.25,-4.85 3.43333,-1.3 6.88333,-1.95 10.35,-1.95 v 0 c 5.4,0 9.48333,1.666667 12.25,5 2.76667,3.333333 4.15,7.633333 4.15,12.9 v 0 V 0 h -7.9 v -35.5 c 0,-3.4 -1,-6.183333 -3,-8.35 -2,-2.166667 -4.7,-3.25 -8.1,-3.25 v 0 c -3.2,0 -6.05,0.416667 -8.55,1.25 -2.5,0.833333 -5.31667,2.15 -8.45,3.95 v 0 V 0 Z m 107.2,0.6 c -5.73333,0 -10.18333,-0.83333333 -13.35,-2.5 -3.16667,-1.6666667 -5.45,-4.4666667 -6.85,-8.4 -1.4,-3.933333 -2.1,-9.433333 -2.1,-16.5 v 0 c 0,-7.133333 0.71667,-12.666667 2.15,-16.6 1.43333,-3.933333 3.75,-6.7 6.95,-8.3 3.2,-1.6 7.63333,-2.4 13.3,-2.4 v 0 c 4.86667,0 8.76667,0.533333 11.7,1.6 2.93333,1.066667 5.1,2.883333 6.5,5.45 1.4,2.566667 2.1,6.116667 2.1,10.65 v 0 c 0,4.533333 -1.31667,7.816667 -3.95,9.85 -2.63333,2.033333 -6.38333,3.05 -11.25,3.05 v 0 h -19.6 c 0.0667,4.6 0.53333,8.15 1.4,10.65 0.86667,2.5 2.46667,4.3333333 4.8,5.5 2.33333,1.1666667 5.7,1.75 10.1,1.75 v 0 h 17.2 v 4.8 c -3.6,0.46666667 -6.8,0.81666667 -9.6,1.05 -2.8,0.23333333 -5.96667,0.35 -9.5,0.35 z m -14.5,-29.3 h 19 c 3.06667,0 5.3,-0.566667 6.7,-1.7 1.4,-1.133333 2.1,-3.1 2.1,-5.9 v 0 c 0,-4.466667 -0.98333,-7.55 -2.95,-9.25 -1.96667,-1.7 -5.38333,-2.55 -10.25,-2.55 v 0 c -3.86667,0 -6.83333,0.566667 -8.9,1.7 -2.06667,1.133333 -3.53333,3.066667 -4.4,5.8 -0.86667,2.733333 -1.3,6.7 -1.3,11.9 z M 488.8,0 472.6,-53.4 h 8.1 L 493.20688,-10.365591 507.3,-53.4 h 6.9 L 528.29312,-9.4759138 540.4,-53.4 h 8.1 L 532.4,0 h -8.7 L 510.6,-42.8 497.4,0 Z M 586,0 v -76.3 h 7.9 v 28.8 c 2.73333,-1.933333 5.81667,-3.55 9.25,-4.85 3.43333,-1.3 6.88333,-1.95 10.35,-1.95 v 0 c 5.4,0 9.48333,1.666667 12.25,5 2.76667,3.333333 4.15,7.633333 4.15,12.9 v 0 V 0 H 622 v -35.5 c 0,-3.4 -1,-6.183333 -3,-8.35 -2,-2.166667 -4.7,-3.25 -8.1,-3.25 v 0 c -3.2,0 -6.05,0.416667 -8.55,1.25 -2.5,0.833333 -5.31667,2.15 -8.45,3.95 v 0 V 0 Z m 88,-62.9 c -0.46667,0 -0.85,-0.15 -1.15,-0.45 -0.3,-0.3 -0.45,-0.683333 -0.45,-1.15 v 0 -7.8 c 0,-1.066667 0.53333,-1.6 1.6,-1.6 v 0 h 5.6 c 1,0 1.5,0.533333 1.5,1.6 v 0 7.8 c 0,1.066667 -0.5,1.6 -1.5,1.6 v 0 z M 672.8,0 v -53.4 h 7.9 V 0 Z m 69.5,0.6 c -3,0 -6.76667,-0.13333333 -11.3,-0.4 -4.53333,-0.26666667 -7.63333,-0.6 -9.3,-1 v 0 -4.8 h 21.9 c 3.73333,0 6.46667,-0.5 8.2,-1.5 1.73333,-1 2.6,-3.1 2.6,-6.3 v 0 -2.4 c 0,-5 -3.23333,-7.5 -9.7,-7.5 v 0 h -7.5 c -5.13333,0 -9.08333,-1 -11.85,-3 -2.76667,-2 -4.15,-5.4 -4.15,-10.2 v 0 -2.8 c 0,-5.066667 1.48333,-8.766667 4.45,-11.1 2.96667,-2.333333 7.75,-3.5 14.35,-3.5 v 0 c 2.86667,0 6.25,0.15 10.15,0.45 3.9,0.3 6.95,0.65 9.15,1.05 v 0 4.8 h -20.6 c -3.6,0 -6.26667,0.6 -8,1.8 -1.73333,1.2 -2.6,3.366667 -2.6,6.5 v 0 2.2 c 0,2.866667 0.85,4.783333 2.55,5.75 1.7,0.966667 4.31667,1.45 7.85,1.45 v 0 h 7.6 c 4.86667,0 8.63333,1.133333 11.3,3.4 2.66667,2.266667 4,5.533333 4,9.8 v 0 3.7 c 0,5.0666667 -1.63333,8.6 -4.9,10.6 -3.26667,2 -8,3 -14.2,3 z M 819.6,0 c -5.26667,0 -9.13333,-1.35 -11.6,-4.05 -2.46667,-2.7 -3.63333,-7.116667 -3.5,-13.25 v 0 l 0.3,-29.6 h -8.5 V -52 l 8.6,-1.4 1.3,-14.9 h 6.1 v 14.9 h 15.4 v 6.5 h -15.4 v 29.6 c 0,4.066667 0.76667,6.85 2.3,8.35 1.53333,1.5 3.46667,2.35 5.8,2.55 v 0 l 6.5,0.6 V 0 Z m 61,0.1 c -4.73333,0 -8.25,-1.3 -10.55,-3.9 -2.3,-2.6 -3.45,-7.033333 -3.45,-13.3 v 0 -59.2 h 7.9 v 58.2 c 0,4.4 0.6,7.4 1.8,9 1.2,1.6 3.1,2.5666667 5.7,2.9 v 0 l 5.4,0.6 v 5.7 z m 63.8,0.5 c -5.73333,0 -10.18333,-0.83333333 -13.35,-2.5 -3.16667,-1.6666667 -5.45,-4.4666667 -6.85,-8.4 -1.4,-3.933333 -2.1,-9.433333 -2.1,-16.5 v 0 c 0,-7.133333 0.71667,-12.666667 2.15,-16.6 1.43333,-3.933333 3.75,-6.7 6.95,-8.3 3.2,-1.6 7.63333,-2.4 13.3,-2.4 v 0 c 4.86667,0 8.76667,0.533333 11.7,1.6 2.93333,1.066667 5.1,2.883333 6.5,5.45 1.4,2.566667 2.1,6.116667 2.1,10.65 v 0 c 0,4.533333 -1.31667,7.816667 -3.95,9.85 -2.63333,2.033333 -6.38333,3.05 -11.25,3.05 v 0 H 930 c 0.0667,4.6 0.53333,8.15 1.4,10.65 0.86667,2.5 2.46667,4.3333333 4.8,5.5 2.33333,1.1666667 5.7,1.75 10.1,1.75 v 0 h 17.2 v 4.8 c -3.6,0.46666667 -6.8,0.81666667 -9.6,1.05 -2.8,0.23333333 -5.96667,0.35 -9.5,0.35 z m -14.5,-29.3 h 19 c 3.06667,0 5.3,-0.566667 6.7,-1.7 1.4,-1.133333 2.1,-3.1 2.1,-5.9 v 0 c 0,-4.466667 -0.98333,-7.55 -2.95,-9.25 -1.96667,-1.7 -5.38333,-2.55 -10.25,-2.55 v 0 c -3.86667,0 -6.83333,0.566667 -8.9,1.7 -2.06667,1.133333 -3.53333,3.066667 -4.4,5.8 -0.86667,2.733333 -1.3,6.7 -1.3,11.9 z"
             data-dx="0"
             data-dy="0"
             data-font="Exo"
             data-font-scale="contain"
             data-font-size="100"
             data-font-src="/Content/clientfonts/exo.woff"
             data-href=""
             data-letterspacing="28"
             data-offset="0.5"
             data-side="left"
             data-text-anchor="middle"
             data-textpath="Blow the whistle"
             data-x="0"
             data-xmlspace="preserve"
             data-y="0"
             fill="#00a650"
             id="path9"
             style="fill:#15b161;fill-opacity:1;stroke:url(#linearGradient37);stroke-width:8.04002584;stroke-dasharray:none;stroke-opacity:1"
             sodipodi:nodetypes="ccssssssssssscccsssssccccsssssscccssscccssscccsssssssssssssssssssssssssssssssssccccccccccccccssscccccccccccssscccsccccssssscccsssssscccsssssssssssssssccssscccsscssssssssscccccccccccccccccccssssscccsssssscccssscsscsscsscscccccsssccssscsscssscssssssccssscssscssscsssssscccccccccccssscccsssscccssscccssssssssssssssssccssscccsscsssssssssc" />
        </g>
      </svg>
    </g>
  </g>
</svg>
