<?xml version="1.0" encoding="UTF-8" standalone="no"?>
<svg
   class="thumb"
   height="1000"
   viewBox="0,0,600,600"
   width="1500"
   version="1.1"
   id="svg11"
   sodipodi:docname="Bighil_Logo.svg"
   inkscape:version="1.4.2 (f4327f4, 2025-05-13)"
   xmlns:inkscape="http://www.inkscape.org/namespaces/inkscape"
   xmlns:sodipodi="http://sodipodi.sourceforge.net/DTD/sodipodi-0.dtd"
   xmlns="http://www.w3.org/2000/svg"
   xmlns:svg="http://www.w3.org/2000/svg">
  <sodipodi:namedview
     id="namedview11"
     pagecolor="#ffffff"
     bordercolor="#000000"
     borderopacity="0.25"
     inkscape:showpageshadow="2"
     inkscape:pageopacity="0.0"
     inkscape:pagecheckerboard="0"
     inkscape:deskcolor="#d1d1d1"
     inkscape:zoom="0.54659354"
     inkscape:cx="922.07456"
     inkscape:cy="456.4635"
     inkscape:window-width="1920"
     inkscape:window-height="991"
     inkscape:window-x="-9"
     inkscape:window-y="-9"
     inkscape:window-maximized="1"
     inkscape:current-layer="svg9" />
  <defs
     id="defs1" />
  <g
     transform="matrix(3.3748,0,0,3.3748,-126.5894,151.8436)"
     id="g11">
    <g
       transform="matrix(0.5,0,0,0.5,49.525,14.25)"
       id="g3">
      <svg
         height="181"
         style="overflow: visible;"
         width="305.90000000000003"
         version="1.1"
         id="svg2">
        <defs
           id="defs2">
          <linearGradient
             id="linearGradientSjxy616qmg"
             x1="0"
             x2="1"
             y1="0.5"
             y2="0.5">
            <stop
               offset="0%"
               stop-color="#20bd67"
               id="stop1" />
            <stop
               offset="100%"
               stop-color="#20bd67"
               id="stop2" />
          </linearGradient>
        </defs>
        <g
           transform="matrix(1,0,0,1,0,90.75)"
           id="g2">
          <path
             d="m 59.687386,-36.4 q 5.998528,1.9 9.397693,6.35 3.399166,4.45 3.399166,10.95 v 0 q 0,9.2 -7.148245,14.15 Q 58.187754,0 44.491116,0 V 0 H 8.3 v -70 h 34.191607 q 12.796858,0 19.645177,4.9 6.84832,4.9 6.84832,13.3 v 0 q 0,5.1 -2.449399,9.1 -2.449399,4 -6.848319,6.3 z M 40.492097,-57.8 H 24.396049 v 16.5 h 16.096048 q 5.998528,0 9.097768,-2.1 3.099239,-2.1 3.099239,-6.2 v 0 q 0,-4.1 -3.099239,-6.15 -3.09924,-2.05 -9.097768,-2.05 z m 2.799313,45.6 q 6.398429,0 9.647632,-2.1 3.249202,-2.1 3.249202,-6.5 v 0 q 0,-8.7 -12.896834,-8.7 v 0 H 24.396049 v 17.3 z M 83.681496,0 V -53.8 H 99.277667 V 0 Z m 7.798086,-61.3 q -4.298946,0 -6.998283,-2.5 -2.699337,-2.5 -2.699337,-6.2 v 0 q 0,-3.7 2.699337,-6.2 2.699337,-2.5 6.998283,-2.5 v 0 q 4.298944,0 6.998281,2.4 2.699337,2.4 2.699337,6 v 0 q 0,3.9 -2.699337,6.45 -2.699337,2.55 -6.998281,2.55 z m 62.984538,7.5 h 14.79637 V -9 q 0,14.8 -7.69812,22 -7.6981,7.2 -22.49447,7.2 v 0 q -7.79808,0 -14.79637,-1.9 -6.99828,-1.9 -11.59715,-5.5 v 0 l 6.19847,-11.2 q 3.39918,2.8 8.5979,4.45 5.19872,1.65 10.39745,1.65 v 0 q 8.098,0 11.94706,-3.65 3.84906,-3.65 3.84906,-11.05 v 0 -2.3 q -6.0985,6.7 -16.99583,6.7 v 0 q -7.39819,0 -13.54668,-3.25 -6.14848,-3.25 -9.7476,-9.15 -3.59912,-5.9 -3.59912,-13.6 v 0 q 0,-7.7 3.59912,-13.6 3.59912,-5.9 9.7476,-9.15 6.14849,-3.25 13.54668,-3.25 v 0 q 11.69713,0 17.79563,7.7 v 0 z m -14.6964,38.4 q 6.19848,0 10.14752,-3.65 3.94903,-3.65 3.94903,-9.55 v 0 q 0,-5.9 -3.94903,-9.55 -3.94904,-3.65 -10.14752,-3.65 v 0 q -6.19847,0 -10.19749,3.65 -3.99902,3.65 -3.99902,9.55 v 0 q 0,5.9 3.99902,9.55 3.99902,3.65 10.19749,3.65 z m 76.68118,-39.2 q 9.99756,0 16.14604,6 6.14849,6 6.14849,17.8 v 0 V 0 h -15.59617 v -28.4 q 0,-6.4 -2.79931,-9.55 -2.79931,-3.15 -8.09802,-3.15 v 0 q -5.89854,0 -9.39768,3.65 -3.49915,3.65 -3.49915,10.85 v 0 V 0 h -15.59618 v -74.2 h 15.59618 v 26 q 3.09924,-3.1 7.49817,-4.75 4.39891,-1.65 9.59763,-1.65 z M 252.83997,0 v -53.8 h 15.59617 V 0 Z m 7.79809,-61.3 q -4.29895,0 -6.99829,-2.5 -2.69934,-2.5 -2.69934,-6.2 v 0 q 0,-3.7 2.69934,-6.2 2.69934,-2.5 6.99829,-2.5 v 0 q 4.29894,0 6.99828,2.4 2.69934,2.4 2.69934,6 v 0 q 0,3.9 -2.69934,6.45 -2.69934,2.55 -6.99828,2.55 z M 282.93258,0 v -74.2 h 15.59617 V 0 Z"
             data-dx="0"
             data-dy="0"
             data-font="Montserrat"
             data-font-scale="contain"
             data-font-size="100"
             data-font-src="/Content/clientfonts/montserrat-bold.woff"
             data-href=""
             data-letterspacing="0"
             data-offset="0.5"
             data-side="left"
             data-text-anchor="middle"
             data-textpath="Bighil"
             data-x="0"
             data-xmlspace="preserve"
             data-y="0"
             fill="#00a650"
             stroke="#00a650"
             stroke-width="3.0"
             id="path2"
             style="stroke-width:0;stroke-dasharray:none" />
        </g>
      </svg>
    </g>
    <g
       transform="matrix(0.5976,0,0,0.5976,98.997,0.1686)"
       id="g5">
      <svg
         height="58"
         viewBox="9,21,82.00000000000001,58"
         width="82.00000000000001"
         version="1.1"
         id="svg4">
        <defs
           id="defs4">
          <linearGradient
             id="linearGradientSjxy616qm8"
             x1="0.17"
             x2="0.83"
             y1="0.87"
             y2="0.13">
            <stop
               offset="0%"
               stop-color="#2de37f"
               id="stop3" />
            <stop
               offset="100%"
               stop-color="#20bd67"
               id="stop4" />
          </linearGradient>
        </defs>
        <g
           id="g4">
          <path
             d="M50.6,26c-0.42,0-0.779,0.36-0.779,0.78v7.44c0,1.08,1.619,1.08,1.619,0v-7.44   C51.439,26.36,51.08,26,50.6,26L50.6,26z M39.26,27.08c-0.72,0-1.08,0.9-0.54,1.38L44,33.68c0.72,0.78,1.86-0.36,1.08-1.08   l-5.22-5.28C39.68,27.2,39.5,27.08,39.26,27.08L39.26,27.08z M62,27.08c-0.24,0-0.42,0.12-0.601,0.24l-5.22,5.28   c-0.78,0.72,0.36,1.86,1.14,1.08l5.221-5.22C63.08,27.92,62.72,27.08,62,27.08L62,27.08z M33.02,36.14   C22.52,36.14,14,44.66,14,55.1C14,65.54,22.52,74,33.02,74c9.721,0,17.82-7.38,18.78-16.98l31.5-3.899c1.5-0.181,2.7-1.5,2.7-3.06   v-2.64v-6.24v-2.22c0-1.56-1.261-2.82-2.82-2.82h-24.9c-0.359,0-0.72,0.3-0.779,0.66L57.199,38c-0.119,0.72-1.02,1.38-1.739,1.38   h-1.681h-6.3H45.8c-0.72,0-1.56-0.66-1.74-1.38l-0.3-1.2c-0.06-0.36-0.359-0.66-0.78-0.66H33.02L33.02,36.14L33.02,36.14z    M33.02,37.76h9.36l0.12,0.6c0.36,1.5,1.74,2.64,3.3,2.64h1.68h6.3h1.681c1.56,0,2.939-1.14,3.3-2.64l0.18-0.6h24.24   c0.72,0,1.2,0.54,1.2,1.2v2.22v6.24v2.64c0,0.72-0.601,1.379-1.26,1.5L51.02,55.52c-0.359,0.061-0.659,0.36-0.659,0.721   C49.7,65.36,42.14,72.38,33.02,72.38c-9.659,0-17.399-7.74-17.399-17.28C15.62,45.5,23.36,37.76,33.02,37.76L33.02,37.76z    M33.02,43.58c-6.42,0-11.579,5.16-11.579,11.52c0,6.301,5.159,11.46,11.579,11.46c6.36,0,11.521-5.159,11.521-11.46   C44.54,48.74,39.38,43.58,33.02,43.58L33.02,43.58z M33.02,45.2c5.46,0,9.96,4.38,9.96,9.9c0,5.46-4.5,9.9-9.96,9.9   c-5.52,0-9.96-4.44-9.96-9.9C23.06,49.58,27.5,45.2,33.02,45.2L33.02,45.2z"
             fill="#00a650"
             stroke="#00a650"
             stroke-width="3.0"
             id="path4"
             style="stroke-width:1.98851587;stroke-dasharray:none" />
        </g>
      </svg>
    </g>
    <g
       transform="matrix(0.14377286,0,0,0.12663734,71.115321,71.690874)"
       id="g10"
       style="stroke-width:5.8355;stroke-dasharray:none">
      <svg
         height="192"
         style="overflow:visible;stroke-width:14.1349;stroke-dasharray:none"
         width="760.5"
         version="1.1"
         id="svg9">
        <defs
           id="defs9">
          <linearGradient
             id="linearGradientSjxy616qmj"
             x1="0"
             x2="1"
             y1="0.5"
             y2="0.5">
            <stop
               offset="49.29%"
               stop-color="#12c462"
               id="stop5" />
            <stop
               offset="50%"
               stop-color="#000000"
               id="stop6" />
            <stop
               offset="50.95%"
               stop-color="#23de77"
               id="stop7" />
            <stop
               offset="99.53%"
               stop-color="#12c462"
               id="stop8" />
            <stop
               offset="100%"
               stop-color="#000000"
               id="stop9" />
          </linearGradient>
        </defs>
        <g
           transform="translate(0,99)"
           id="g9"
           style="stroke-width:11.282;stroke-dasharray:none">
          <path
             d="M -272.96974,31.990962 V -71.053113 h 29.92769 c 14.25116,0 21.37673,8.820366 21.37673,26.461049 v 0 c 0,6.160247 -1.10636,11.247126 -3.31911,15.260614 -2.21261,4.01348 -5.0066,6.626935 -8.38188,7.840297 v 0 c 3.75038,1.026726 7.12563,3.593484 10.12583,7.70032 3.00031,4.1068214 4.50049,9.8470469 4.50049,17.2206719 v 0 c 0,10.4537521 -1.95024,17.8273771 -5.85062,22.1208671 -3.90023,4.29351 -9.67578,6.440256 -17.32639,6.440256 v 0 z m 9.00084,-57.402261 h 21.48927 c 3.67529,0 6.6381,-1.703393 8.88835,-5.1102 2.25021,-3.406808 3.37525,-7.956978 3.37525,-13.650551 v 0 c 0,-11.200427 -4.27533,-16.800658 -12.82602,-16.800658 v 0 h -20.92685 z m 0,47.461873 h 21.82683 c 4.80049,0 8.47576,-1.493389 11.02598,-4.480181 2.55018,-2.986774 3.82532,-8.3069898 3.82532,-15.9606261 v 0 c 0,-5.6002209 -1.40635,-10.033739 -4.21915,-13.3005259 -2.81275,-3.26679 -6.35675,-4.900193 -10.63215,-4.900193 v 0 h -21.82683 z m 105.98401,10.080404 c -5.32544,0 -9.28206,-1.820074 -11.86976,-5.460229 -2.58775,-3.640128 -3.8816,-9.84704 -3.8816,-18.6207281 v 0 -82.8832819 h 8.88829 V 6.6499655 c 0,6.1602535 0.67505,10.3604165 2.02518,12.6005025 1.35009,2.240091 3.48778,3.593477 6.41302,4.060153 v 0 l 6.07554,0.840041 v 7.980316 z m 72.681211,0.700028 c -6.150524,0 -11.100952,-1.073387 -14.851271,-3.220135 -3.75031,-2.146744 -6.5443,-5.996902 -8.38198,-11.550457 -1.83765,-5.553555 -2.75648,-13.4171919 -2.75648,-23.5909292 v 0 c 0,-10.2670628 0.93759,-18.1773888 2.81274,-23.7309418 1.87516,-5.553553 4.65043,-9.35704 8.32572,-11.410433 3.675316,-2.053425 8.625739,-3.080144 14.851271,-3.080144 v 0 c 6.150527,0 11.100949,1.050058 14.851268,3.150127 3.750317,2.100095 6.563061,5.926918 8.438217,11.48047 1.875165,5.553554 2.812746,13.417183 2.812746,23.5909218 v 0 c 0,10.1737373 -0.937581,18.0373742 -2.812746,23.5909292 -1.875156,5.553555 -4.669147,9.403713 -8.381965,11.550457 -3.712814,2.146748 -8.681988,3.220135 -14.90752,3.220135 z m 0,-9.100356 c 4.12535,0 7.369377,-0.676692 9.732083,-2.030082 2.3627,-1.353389 4.181599,-4.130175 5.456714,-8.330341 1.275106,-4.2001603 1.912662,-10.5004104 1.912662,-18.9007422 v 0 c 0,-8.4003368 -0.618802,-14.6772548 -1.856412,-18.8307468 -1.2376,-4.153494 -3.056509,-6.906942 -5.456712,-8.260331 -2.400206,-1.35339 -5.662985,-2.03008 -9.788335,-2.03008 v 0 c -4.200361,0 -7.48189,0.67669 -9.844593,2.03008 -2.362694,1.353389 -4.162862,4.106837 -5.400448,8.260331 -1.23762,4.153492 -1.8564,10.43041 -1.8564,18.8307468 v 0 c 0,8.4003318 0.61878,14.7005819 1.8564,18.9007422 1.237586,4.200166 3.037754,6.976952 5.400448,8.330341 2.362703,1.35339 5.644232,2.030082 9.844593,2.030082 z m 82.1320081,8.260312 -18.2265521,-74.762947 h 9.113276 L 1.6482879,7.7692258 17.642606,-42.771985 h 7.763163 L 39.846289,8.9435879 54.883284,-42.771985 h 9.113277 L 45.882513,31.990962 H 36.09418 L 20.297202,-17.278702 6.5041556,31.990962 Z m 191.1538209,0 c -5.92554,0 -10.27589,-1.890066 -13.05114,-5.670216 -2.77522,-3.780151 -4.08781,-9.963725 -3.93781,-18.5507359 v 0 l 0.33754,-41.4416391 h -9.56337 v -7.140285 l 9.67588,-1.960071 1.4626,-20.860825 h 6.86309 v 20.860825 h 17.32648 v 9.100356 h -13.38755 l -3.93893,41.4416391 c -0.53744,5.6541469 0.8626,9.5903769 2.58773,11.6904639 1.72514,2.100074 3.90032,3.29013 6.52554,3.570147 v 0 l 7.31313,0.84003 v 8.120311 z m 52.87952,0 V -74.833261 h 8.88825 v 40.321604 c 3.07525,-2.70678 6.54431,-4.970204 10.40714,-6.790283 3.86285,-1.820049 7.74439,-2.73009 11.6447,-2.73009 v 0 c 6.07557,0 10.66968,2.333418 13.78248,7.000266 3.11277,4.66685 4.66918,10.68709 4.66918,18.060722 v 0 50.962004 h -8.88831 v -49.701965 c 0,-4.760173 -1.12509,-8.657006 -3.37526,-11.690453 -2.25021,-3.033461 -5.28795,-4.550186 -9.11329,-4.550186 v 0 c -3.60035,0 -6.80684,0.583366 -9.61957,1.750064 -2.81275,1.16672 -5.98177,3.010133 -9.50707,5.530236 v 0 58.662304 z m 120.61022,0.840044 c -6.45052,0 -11.45727,-1.166712 -15.01997,-3.500152 -3.56273,-2.333413 -6.13174,-6.25357 -7.70685,-11.760461 -1.57526,-5.50688 -2.36267,-13.2071842 -2.36267,-23.1009082 v 0 c 0,-9.9870648 0.80617,-17.7340378 2.41888,-23.2409158 1.61264,-5.506881 4.21916,-9.380376 7.81941,-11.620471 3.60021,-2.240088 8.58822,-3.360132 14.96375,-3.360132 v 0 c 5.47561,0 9.86351,0.746703 13.16363,2.24009 3.3004,1.493409 5.7379,4.036829 7.31322,7.630308 1.57506,3.59348 2.36271,8.563666 2.36271,14.910594 v 0 c 0,6.346907 -1.48156,10.9437618 -4.44413,13.7905411 -2.96284,2.8467782 -7.18192,4.27016827 -12.65754,4.27016827 v 0 h -22.0517 c 0.0749,6.44025463 0.5999,11.41045063 1.57511,14.91058363 0.97496,3.500153 2.77531,6.066909 5.40033,7.700317 2.62528,1.633382 6.41304,2.450094 11.36353,2.450094 v 0 h 19.35159 v 6.720255 c -4.05032,0.653365 -7.6505,1.143382 -10.80089,1.47007 -3.15011,0.326665 -6.71308,0.490019 -10.68841,0.490019 z M 345.15816,-8.1906206 h 21.37676 c 3.45018,0 5.96295,-0.7933637 7.538,-2.3800934 1.57534,-1.58673 2.36274,-4.340162 2.36274,-8.260331 v 0 c 0,-6.253584 -1.10621,-10.570411 -3.31892,-12.950494 -2.21269,-2.380115 -6.05669,-3.570147 -11.5323,-3.570147 v 0 c -4.35037,0 -7.68805,0.793357 -10.01327,2.38009 -2.32518,1.586731 -3.97538,4.293512 -4.95048,8.120309 -0.97517,3.826825 -1.46253,9.380375 -1.46253,16.6606664 z M 504.58413,31.990962 486.35764,-42.771985 h 9.11329 l 14.60049,52.860426 15.32703,-52.860426 h 7.76314 l 14.85515,53.518841 14.62236,-53.518841 h 9.11328 l -18.11403,74.762947 h -9.78832 l -14.73877,-51.114648 -14.85128,51.114648 z m 109.35939,0 V -74.833261 h 8.88827 v 40.321604 c 3.07519,-2.70678 6.54429,-4.970204 10.40712,-6.790283 3.86276,-1.820049 7.7444,-2.73009 11.64472,-2.73009 v 0 c 6.07557,0 10.66965,2.333418 13.78245,7.000266 3.11275,4.66685 4.66913,10.68709 4.66913,18.060722 v 0 50.962004 h -8.88826 v -49.701965 c 0,-4.760173 -1.1251,-8.657006 -3.37526,-11.690453 -2.25022,-3.033461 -5.28798,-4.550186 -9.11331,-4.550186 v 0 c -3.60025,0 -6.80684,0.583366 -9.61957,1.750064 -2.81271,1.16672 -5.98178,3.010133 -9.50702,5.530236 v 0 58.662304 z m 99.00843,-88.063474 c -0.52506,0 -0.95633,-0.210005 -1.29385,-0.630016 -0.33755,-0.420019 -0.5063,-0.956715 -0.5063,-1.610073 v 0 -10.920436 c 0,-1.49339 0.60004,-2.240089 1.80015,-2.240089 v 0 h 6.30052 c 1.12511,0 1.68764,0.746699 1.68764,2.240089 v 0 10.920436 c 0,1.493389 -0.56253,2.240089 -1.68764,2.240089 v 0 z m -1.06731,87.902944 -0.2117,-78.441404 c -0.22234,58.997337 5.45367,57.703904 8.77028,0.266112 l 0.32966,78.175292 z m 77.91135,1.000574 c -3.37527,0 -7.61316,-0.186682 -12.71356,-0.560028 -5.10045,-0.373342 -8.58825,-0.840033 -10.46341,-1.400061 v 0 -6.720255 h 24.6396 c 4.20034,0 7.27563,-0.700029 9.22579,-2.100088 1.95019,-1.40006 2.92527,-4.340164 2.92527,-8.820346 v 0 -3.360135 c 0,-7.0002764 -3.63784,-10.50041441 -10.91344,-10.50041441 v 0 h -8.43823 c -5.77549,0 -10.21965,-1.40005539 -13.33238,-4.20016609 -3.11276,-2.8001105 -4.66916,-7.5603025 -4.66916,-14.2805755 v 0 -3.920147 c 0,-7.093613 1.66894,-12.273827 5.00668,-15.540611 3.33782,-3.266792 8.71951,-4.900199 16.14516,-4.900199 v 0 c 3.22525,0 7.03181,0.210008 11.41971,0.630023 4.38789,0.420015 7.8194,0.91004 10.29462,1.470075 v 0 6.720249 h -23.17698 c -4.05037,0 -7.05059,0.840048 -9.00076,2.520106 -1.95019,1.680077 -2.92528,4.713521 -2.92528,9.100357 v 0 3.080119 c 0,4.013491 0.95634,6.696937 2.86904,8.050323 1.91266,1.35339 4.85665,2.0300855 8.83199,2.0300855 v 0 h 8.55071 c 5.47546,0 9.71334,1.5867248 12.71359,4.7601842 3.00028,3.1734591 4.5004,7.7469727 4.5004,13.7205427 v 0 5.1801956 c 0,7.093612 -1.83769,12.040478 -5.513,14.840596 -3.67529,2.800109 -9.00073,4.20017 -15.97636,4.20017 z m 86.96995,-0.840044 c -5.92553,0 -10.27587,-1.890066 -13.05115,-5.670216 -2.77522,-3.780151 -4.08782,-9.963725 -3.9378,-18.5507359 v 0 l 0.3375,-41.4416391 h -9.56332 v -7.140285 l 9.67586,-1.960071 1.46261,-20.860825 h 6.86307 v 20.860825 h 17.32646 v 9.100356 H 868.55271 V 7.7700101 c 0,5.6935609 0.86258,9.5903769 2.58773,11.6904639 1.72513,2.100074 3.90035,3.29013 6.52557,3.570147 v 0 l 7.31313,0.84003 v 8.120311 z m 68.63082,0.140016 c -5.32543,0 -9.28206,-1.820074 -11.86972,-5.460229 -2.58776,-3.640128 -3.88159,-9.84704 -3.88159,-18.6207281 v 0 -82.8832819 h 8.88824 V 6.6499655 c 0,6.1602535 0.67508,10.3604165 2.02515,12.6005025 1.35013,2.240091 3.48782,3.593477 6.4131,4.060153 v 0 l 6.07552,0.840041 v 7.980316 z m 71.78124,0.700028 c -6.4511,0 -11.4574,-1.166712 -15.0195,-3.500152 -3.5635,-2.333413 -6.13243,-6.25357 -7.70747,-11.760461 -1.57523,-5.50688 -2.36279,-13.2071842 -2.36279,-23.1009082 v 0 c 0,-9.9870648 0.8064,-17.7340378 2.41899,-23.2409158 1.61264,-5.506881 4.21914,-9.380376 7.82007,-11.620471 3.5995,-2.240088 8.5869,-3.360132 14.9633,-3.360132 v 0 c 5.4759,0 9.8631,0.746703 13.1629,2.24009 3.3005,1.493409 5.7382,4.036829 7.3136,7.630308 1.5755,3.59348 2.3631,8.563666 2.3631,14.910594 v 0 c 0,6.346907 -1.4815,10.9437618 -4.4446,13.7905411 -2.9631,2.8467782 -7.1821,4.27016827 -12.6563,4.27016827 v 0 h -22.0522 c 0.075,6.44025463 0.6001,11.41045063 1.5753,14.91058363 0.9745,3.500153 2.7745,6.066909 5.3993,7.700317 2.625,1.633382 6.4133,2.450094 11.3644,2.450094 v 0 h 19.3513 v 6.720255 c -4.0508,0.653365 -7.6515,1.143382 -10.8013,1.47007 -3.15,0.326665 -6.712,0.490019 -10.6881,0.490019 z m -16.3134,-41.0216266 h 21.3771 c 3.4495,0 5.9618,-0.7933637 7.5367,-2.3800934 1.5751,-1.58673 2.3627,-4.340162 2.3627,-8.260331 v 0 c 0,-6.253584 -1.1066,-10.570411 -3.3189,-12.950494 -2.2123,-2.380115 -6.0557,-3.570147 -11.5316,-3.570147 v 0 c -4.351,0 -7.689,0.793357 -10.0138,2.38009 -2.325,1.586731 -3.9749,4.293512 -4.9495,8.120309 -0.9752,3.826825 -1.4627,9.380375 -1.4627,16.6606664 z"
             data-dx="0"
             data-dy="0"
             data-font="Exo"
             data-font-scale="contain"
             data-font-size="100"
             data-font-src="/Content/clientfonts/exo.woff"
             data-href=""
             data-letterspacing="28"
             data-offset="0.5"
             data-side="left"
             data-text-anchor="middle"
             data-textpath="Blow the whistle"
             data-x="0"
             data-xmlspace="preserve"
             data-y="0"
             fill="#00a650"
             stroke="#00a650"
             stroke-width="3.0"
             id="path9"
             style="stroke-width:10.4554;stroke-dasharray:none"
             sodipodi:nodetypes="ccssssssssssscccsssssccccsssssscccssscccssscccsssssssssssssssssssssssssssssssssccccccccccccccssscccccccccccssscccsccccssssscccsssssscccsssssssssssssssccssscccsscssssssssscccccccccccccccccccssssscccsssssscccssscsscsscsscscccccsssccssscsscssscssssssccssscssscssscsssssscccccccccccssscccsssscccssscccssssssssssssssssccssscccsscsssssssssc" />
        </g>
      </svg>
    </g>
  </g>
</svg>
